<?xml version="1.0" encoding="UTF-8" standalone="no"?>
<!-- Created with Inkscape (http://www.inkscape.org/) -->

<svg
   width="361.24442mm"
   height="361.24442mm"
   viewBox="0 0 361.24442 361.24442"
   version="1.1"
   id="svg1"
   xml:space="preserve"
   xmlns="http://www.w3.org/2000/svg"
   xmlns:svg="http://www.w3.org/2000/svg"><defs
     id="defs1" /><g
     id="layer1"
     transform="translate(77.699287,26.370125)"><path
       style="currentcolor:#000000"
       d="M -77.699287,154.25208 V -26.370125 H 102.92292 283.54513 V 154.25208 334.87429 H 102.92292 -77.699287 Z m 90.650431,96.84404 26.959777,-26.98096 0.14979,-38.8327 c 0.08238,-21.35799 0.04444,-40.60936 -0.08432,-42.78084 l -0.234112,-3.94815 -27.058979,26.9875 -27.058978,26.9875 -0.09371,42.7743 c -0.05154,23.52587 0.03104,42.7743 0.183524,42.7743 0.152481,0 12.4091385,-12.14143 27.237016,-26.98095 z m 104.435666,0.50204 c 9.60437,-5.29342 20.16117,-11.10553 23.45955,-12.9158 l 5.99705,-3.29139 h 23.64337 c 22.8305,0 23.73409,-0.0251 26.28211,-0.73074 3.49501,-0.96786 6.05927,-2.47125 8.64756,-5.06995 2.53489,-2.54508 4.57842,-6.26415 5.29184,-9.63078 0.7661,-3.61525 0.74896,-65.21009 -0.0191,-68.46789 -1.47367,-6.25106 -6.05868,-11.51936 -12.04353,-13.83834 -3.51135,-1.36056 -5.68001,-1.15599 -12.46723,1.17603 -3.20146,1.09999 -8.36083,2.80359 -11.46528,3.78578 -8.26536,2.61502 -16.29631,6.71025 -20.6375,10.5237 l -1.23472,1.08463 19.22639,0.0256 c 14.5387,0.0193 19.36286,0.13033 19.78612,0.4553 1.37886,1.05866 1.38054,1.09699 1.38054,31.39949 v 29.42862 l -0.8651,0.93346 -0.8651,0.93346 -23.74114,0.004 -23.74115,0.004 -1.5875,0.91191 c -3.92763,2.25614 -26.92725,15.0213 -27.37243,15.19213 -0.41866,0.16066 -0.49701,-1.09432 -0.49701,-7.96091 V 217.3993 H 95.928859 77.293133 l -0.855244,-0.90929 c -0.810423,-0.86163 -0.86123,-1.17593 -0.969465,-5.99724 l -0.11422,-5.08796 -3.766335,2.54361 c -2.547101,1.7202 -5.330961,4.09008 -8.599622,7.32081 -4.798644,4.74297 -4.831286,4.78605 -4.554246,6.01128 1.037014,4.58626 5.197123,9.58604 10.025863,12.04948 0.747475,0.38133 2.562217,1.00105 4.032761,1.37715 2.370518,0.60628 3.947468,0.68383 13.906172,0.68383 h 11.232457 v 13.57004 13.57005 l 1.146528,-0.65425 c 0.63059,-0.35983 9.004648,-4.98522 18.609028,-10.27865 z M 54.11142,211.71621 c 2.883897,-2.93168 6.850429,-6.62261 8.814516,-8.20209 14.778989,-11.8849 31.926107,-15.65956 53.314344,-11.73626 2.37684,0.43599 4.32153,0.7612 4.32153,0.72268 0,-0.33139 -3.22514,-9.28942 -4.78378,-13.28724 C 104.24814,149.63971 87.098713,121.50612 65.671603,97.01385 60.92148,91.584217 49.377397,79.4632 48.956327,79.4632 c -0.157945,0 -0.303483,30.95625 -0.323418,68.79166 -0.01993,37.83541 0.0248,68.79166 0.09941,68.79166 0.07461,0 2.495206,-2.39864 5.379102,-5.33031 z m 74.55442,-28.71274 c 1.81588,-9.16497 5.45564,-18.68933 9.57185,-25.04722 7.64437,-11.80747 18.19585,-18.88218 36.91475,-24.75116 2.3759,-0.74492 4.32058,-1.4386 4.32153,-1.54151 0.005,-0.59717 -13.24064,-10.88419 -20.283,-15.75188 -12.07264,-8.34464 -22.15816,-14.37959 -34.04305,-20.370582 -22.28751,-11.2348 -42.396196,-17.89975 -63.752836,-21.13064 -6.130375,-0.927419 -5.955003,-1.166271 -2.040216,2.778719 24.090619,24.276483 43.402642,51.819693 57.633282,82.197763 3.12093,6.66223 7.8195,18.08558 9.75599,23.71915 1.09527,3.18632 1.27191,3.17689 1.9217,-0.10264 z M 12.965459,153.01589 39.952092,126.02692 V 95.072144 64.117368 l 5.115277,0.04218 c 10.452491,0.08619 23.344072,1.984161 37.218053,5.479454 20.995788,5.2895 42.662798,14.576282 64.381938,27.594992 12.35426,7.405286 31.76644,21.304226 38.18819,27.342386 1.51655,1.42596 1.52965,1.39202 0.96639,-2.50254 -0.69176,-4.78304 -1.00001,-12.80591 -0.68476,-17.82208 0.96548,-15.362209 6.3564,-28.127886 16.16634,-38.281786 7.59786,-7.864271 16.34608,-13.663764 27.8588,-18.46855 l 3.29636,-1.375721 -57.88871,-0.08924 c -31.8388,-0.04908 -83.942746,-0.04908 -115.786557,0 l -57.89784035,0.08924 5.94616015,4.938888 c 3.2703882,2.716389 8.0519182,6.734823 10.6256212,8.929853 l 4.679462,3.990964 v 27.407528 27.407524 l -18.3444433,18.3419 -18.3444427,18.3419 v 12.2603 c 0,6.74316 0.119451,12.2603 0.265448,12.2603 0.145996,0 12.4094326,-12.14504 27.252081,-26.98897 z"
       id="path1" /></g></svg>
